# xmcd
#
# Track frame offsets:
#   150
#   18049
#   38532
#   52310
#   69558
#   89187
#   110077
#   124943
#   139172
#   154749
#   175359
#   192117
#   209422
#   225083
#   244494
#   259818
#   273763
#   289097
#   306165
#   324914
#
# Disc length: 4583 seconds
#
# Revision: 0
# Processed by: cddbd v1.5.2PL0 Copyright (c) Steve Scherf et al.
# Submitted via: GXTranscoder 2.0.1939
#
DISCID=2511e514
DTITLE=UB 40 - Best off
DYEAR=1900
DGENRE=Country
TTITLE0=One in Ten
TTITLE1=Red Red Wine
TTITLE2=Kingston Town
TTITLE3=Higher Ground
TTITLE4=King
TTITLE5=Cherry o Baby
TTITLE6=i got you Babe
TTITLE7=Come back Darling
TTITLE8=The Earth dies Screaming
TTITLE9=If it happens again
TTITLE10=Don`t break my Heart
TTITLE11=Can`t help falling in Love
TTITLE12=Watchdogs
TTITLE13=Tell me is it true
TTITLE14=Rat in mi Kitchen
TTITLE15=Homley Girl
TTITLE16=Light my Fire
TTITLE17=Bring my your Cup
TTITLE18=Foot for Thought
TTITLE19=Sing you own Song
EXTD=
EXTT0=
EXTT1=
EXTT2=
EXTT3=
EXTT4=
EXTT5=
EXTT6=
EXTT7=
EXTT8=
EXTT9=
EXTT10=
EXTT11=
EXTT12=
EXTT13=
EXTT14=
EXTT15=
EXTT16=
EXTT17=
EXTT18=
EXTT19=
PLAYORDER=
